{
	"asset":{
		"generator":"Khronos glTF Blender I/O v4.1.63",
		"version":"2.0"
	},
	"extensionsUsed":[
		"KHR_materials_specular",
		"KHR_materials_ior"
	],
	"scene":0,
	"scenes":[
		{
			"name":"Scene",
			"nodes":[
				0,
				1,
				2,
				3,
				4,
				5,
				6,
				7
			]
		}
	],
	"nodes":[
		{
			"mesh":0,
			"name":"FL_Wheel",
			"rotation":[
				0.7071068286895752,
				0,
				0,
				0.7071068286895752
			],
			"scale":[
				3.2504091262817383,
				3.2504091262817383,
				3.2504091262817383
			],
			"translation":[
				0,
				-0.28686460852622986,
				0.5641040802001953
			]
		},
		{
			"mesh":1,
			"name":"RL_Wheel",
			"rotation":[
				0.7071068286895752,
				0,
				0,
				0.7071068286895752
			],
			"scale":[
				3.2504091262817383,
				3.2504091262817383,
				3.2504091262817383
			],
			"translation":[
				0,
				-0.2777368724346161,
				0.5641040802001953
			]
		},
		{
			"mesh":2,
			"name":"FR_Wheel",
			"rotation":[
				0.7071068286895752,
				0,
				0,
				0.7071068286895752
			],
			"scale":[
				3.2504091262817383,
				3.2504091262817383,
				3.2504091262817383
			],
			"translation":[
				0,
				-0.28686460852622986,
				0.5641040802001953
			]
		},
		{
			"mesh":3,
			"name":"RR_Wheel",
			"rotation":[
				0.7071068286895752,
				0,
				0,
				0.7071068286895752
			],
			"scale":[
				3.2504091262817383,
				3.2504091262817383,
				3.2504091262817383
			],
			"translation":[
				0,
				-0.2777368724346161,
				0.5641040802001953
			]
		},
		{
			"mesh":4,
			"name":"body",
			"rotation":[
				0.7071068286895752,
				0,
				0,
				0.7071068286895752
			],
			"scale":[
				3.2504091262817383,
				3.2504091262817383,
				3.2504091262817383
			],
			"translation":[
				0,
				0.28056901693344116,
				0.5641040802001953
			]
		},
		{
			"mesh":5,
			"name":"cockpit",
			"rotation":[
				0.7071068286895752,
				0,
				0,
				0.7071068286895752
			],
			"scale":[
				3.2504091262817383,
				3.2504091262817383,
				3.2504091262817383
			],
			"translation":[
				0,
				0.28056901693344116,
				0.5641040802001953
			]
		},
		{
			"mesh":6,
			"name":"carbon",
			"rotation":[
				0.7071068286895752,
				0,
				0,
				0.7071068286895752
			],
			"scale":[
				3.2504091262817383,
				3.2504091262817383,
				3.2504091262817383
			],
			"translation":[
				0,
				0.28056901693344116,
				0.5641040802001953
			]
		},
		{
			"mesh":7,
			"name":"details",
			"rotation":[
				0.7071068286895752,
				0,
				0,
				0.7071068286895752
			],
			"scale":[
				3.2504091262817383,
				3.2504091262817383,
				3.2504091262817383
			],
			"translation":[
				0,
				0.28056901693344116,
				0.5641040802001953
			]
		}
	],
	"materials":[
		{
			"doubleSided":true,
			"extensions":{
				"KHR_materials_specular":{
					"specularColorFactor":[
						2.0,
						2.0,
						2.0
					]
				},
				"KHR_materials_ior":{
					"ior":1.4500000476837158
				}
			},
			"name":"Wheels",
			"pbrMetallicRoughness":{
				"baseColorTexture":{
					"index":0
				},
				"roughnessFactor":0.8999999761581421
			}
		},
		{
			"doubleSided":true,
			"extensions":{
				"KHR_materials_specular":{
					"specularColorFactor":[
						2.0,
						2.0,
						2.0
					]
				},
				"KHR_materials_ior":{
					"ior":1.4500000476837158
				}
			},
			"name":"body",
			"pbrMetallicRoughness":{
				"baseColorTexture":{
					"index":1
				},
				"metallicFactor":0.8414634466171265,
				"roughnessFactor":0.8999999761581421
			}
		},
		{
			"doubleSided":true,
			"extensions":{
				"KHR_materials_specular":{
					"specularColorFactor":[
						2.0,
						2.0,
						2.0
					]
				},
				"KHR_materials_ior":{
					"ior":1.4500000476837158
				}
			},
			"name":"cockpit",
			"pbrMetallicRoughness":{
				"baseColorFactor":[
					0,
					0,
					0,
					1
				],
				"metallicFactor":0,
				"roughnessFactor":0.5527864098548889
			}
		},
		{
			"doubleSided":true,
			"extensions":{
				"KHR_materials_specular":{
					"specularColorFactor":[
						2.0,
						2.0,
						2.0
					]
				},
				"KHR_materials_ior":{
					"ior":1.4500000476837158
				}
			},
			"name":"carbon",
			"pbrMetallicRoughness":{
				"baseColorTexture":{
					"index":2
				},
				"metallicFactor":0.8545454740524292,
				"roughnessFactor":0.8909090757369995
			}
		},
		{
			"doubleSided":true,
			"extensions":{
				"KHR_materials_specular":{
					"specularColorFactor":[
						2.0,
						2.0,
						2.0
					]
				},
				"KHR_materials_ior":{
					"ior":1.4500000476837158
				}
			},
			"name":"details",
			"pbrMetallicRoughness":{
				"baseColorTexture":{
					"index":3
				},
				"roughnessFactor":0.25
			}
		}
	],
	"meshes":[
		{
			"name":"Mesh",
			"primitives":[
				{
					"attributes":{
						"POSITION":0,
						"NORMAL":1,
						"TEXCOORD_0":2
					},
					"indices":3,
					"material":0
				}
			]
		},
		{
			"name":"Mesh.001",
			"primitives":[
				{
					"attributes":{
						"POSITION":4,
						"NORMAL":5,
						"TEXCOORD_0":6
					},
					"indices":7,
					"material":0
				}
			]
		},
		{
			"name":"Mesh.002",
			"primitives":[
				{
					"attributes":{
						"POSITION":8,
						"NORMAL":9,
						"TEXCOORD_0":10
					},
					"indices":11,
					"material":0
				}
			]
		},
		{
			"name":"Mesh.003",
			"primitives":[
				{
					"attributes":{
						"POSITION":12,
						"NORMAL":13,
						"TEXCOORD_0":14
					},
					"indices":15,
					"material":0
				}
			]
		},
		{
			"name":"Mesh.004",
			"primitives":[
				{
					"attributes":{
						"POSITION":16,
						"NORMAL":17,
						"TEXCOORD_0":18
					},
					"indices":19,
					"material":1
				}
			]
		},
		{
			"name":"Mesh.005",
			"primitives":[
				{
					"attributes":{
						"POSITION":20,
						"NORMAL":21,
						"TEXCOORD_0":22
					},
					"indices":23,
					"material":2
				}
			]
		},
		{
			"name":"Mesh.006",
			"primitives":[
				{
					"attributes":{
						"POSITION":24,
						"NORMAL":25,
						"TEXCOORD_0":26
					},
					"indices":27,
					"material":3
				}
			]
		},
		{
			"name":"Mesh.007",
			"primitives":[
				{
					"attributes":{
						"POSITION":28,
						"NORMAL":29,
						"TEXCOORD_0":30
					},
					"indices":31,
					"material":4
				}
			]
		}
	],
	"textures":[
		{
			"sampler":0,
			"source":0
		},
		{
			"sampler":0,
			"source":1
		},
		{
			"sampler":0,
			"source":2
		},
		{
			"sampler":0,
			"source":3
		}
	],
	"images":[
		{
			"mimeType":"image/png",
			"name":"Wheels_BaseColor",
			"uri":"Wheels_BaseColor.png"
		},
		{
			"mimeType":"image/png",
			"name":"MclarenTestUV1",
			"uri":"MclarenTestUV1.png"
		},
		{
			"mimeType":"image/png",
			"name":"carbon_BaseColor",
			"uri":"carbon_BaseColor.png"
		},
		{
			"mimeType":"image/png",
			"name":"details_BaseColor",
			"uri":"details_BaseColor.png"
		}
	],
	"accessors":[
		{
			"bufferView":0,
			"componentType":5126,
			"count":114510,
			"max":[
				0.3797820806503296,
				0.7167990207672119,
				0.02979421615600586
			],
			"min":[
				0.2373722344636917,
				0.44441795349121094,
				-0.24430714547634125
			],
			"type":"VEC3"
		},
		{
			"bufferView":1,
			"componentType":5126,
			"count":114510,
			"type":"VEC3"
		},
		{
			"bufferView":2,
			"componentType":5126,
			"count":114510,
			"type":"VEC2"
		},
		{
			"bufferView":3,
			"componentType":5125,
			"count":618630,
			"type":"SCALAR"
		},
		{
			"bufferView":4,
			"componentType":5126,
			"count":114510,
			"max":[
				0.3881314992904663,
				-0.6041868329048157,
				0.03326618671417236
			],
			"min":[
				0.2019357532262802,
				-0.8834682703018188,
				-0.24777913093566895
			],
			"type":"VEC3"
		},
		{
			"bufferView":5,
			"componentType":5126,
			"count":114510,
			"type":"VEC3"
		},
		{
			"bufferView":6,
			"componentType":5126,
			"count":114510,
			"type":"VEC2"
		},
		{
			"bufferView":7,
			"componentType":5125,
			"count":618630,
			"type":"SCALAR"
		},
		{
			"bufferView":8,
			"componentType":5126,
			"count":114510,
			"max":[
				-0.23828467726707458,
				0.7167990207672119,
				0.02979421615600586
			],
			"min":[
				-0.38069453835487366,
				0.44441795349121094,
				-0.24430714547634125
			],
			"type":"VEC3"
		},
		{
			"bufferView":9,
			"componentType":5126,
			"count":114510,
			"type":"VEC3"
		},
		{
			"bufferView":10,
			"componentType":5126,
			"count":114510,
			"type":"VEC2"
		},
		{
			"bufferView":11,
			"componentType":5125,
			"count":618630,
			"type":"SCALAR"
		},
		{
			"bufferView":12,
			"componentType":5126,
			"count":114510,
			"max":[
				-0.20073488354682922,
				-0.6041868329048157,
				0.03326618671417236
			],
			"min":[
				-0.38693058490753174,
				-0.8834682703018188,
				-0.24777913093566895
			],
			"type":"VEC3"
		},
		{
			"bufferView":13,
			"componentType":5126,
			"count":114510,
			"type":"VEC3"
		},
		{
			"bufferView":14,
			"componentType":5126,
			"count":114510,
			"type":"VEC2"
		},
		{
			"bufferView":15,
			"componentType":5125,
			"count":618630,
			"type":"SCALAR"
		},
		{
			"bufferView":16,
			"componentType":5126,
			"count":87627,
			"max":[
				0.35199519991874695,
				1,
				0.19460473954677582
			],
			"min":[
				-0.3488956391811371,
				-1,
				-0.1843690425157547
			],
			"type":"VEC3"
		},
		{
			"bufferView":17,
			"componentType":5126,
			"count":87627,
			"type":"VEC3"
		},
		{
			"bufferView":18,
			"componentType":5126,
			"count":87627,
			"type":"VEC2"
		},
		{
			"bufferView":19,
			"componentType":5125,
			"count":491682,
			"type":"SCALAR"
		},
		{
			"bufferView":20,
			"componentType":5126,
			"count":9069,
			"max":[
				0.11238855868577957,
				0.4359998404979706,
				0.18466295301914215
			],
			"min":[
				-0.1087736263871193,
				-0.13861475884914398,
				-0.04746495187282562
			],
			"type":"VEC3"
		},
		{
			"bufferView":21,
			"componentType":5126,
			"count":9069,
			"type":"VEC3"
		},
		{
			"bufferView":22,
			"componentType":5126,
			"count":9069,
			"type":"VEC2"
		},
		{
			"bufferView":23,
			"componentType":5123,
			"count":53175,
			"type":"SCALAR"
		},
		{
			"bufferView":24,
			"componentType":5126,
			"count":58856,
			"max":[
				0.36883053183555603,
				0.8549063801765442,
				0.1914120316505432
			],
			"min":[
				-0.3657486140727997,
				-0.9621407985687256,
				-0.21450038254261017
			],
			"type":"VEC3"
		},
		{
			"bufferView":25,
			"componentType":5126,
			"count":58856,
			"type":"VEC3"
		},
		{
			"bufferView":26,
			"componentType":5126,
			"count":58856,
			"type":"VEC2"
		},
		{
			"bufferView":27,
			"componentType":5123,
			"count":330426,
			"type":"SCALAR"
		},
		{
			"bufferView":28,
			"componentType":5126,
			"count":16150,
			"max":[
				0.3279006779193878,
				0.9515541791915894,
				0.15356716513633728
			],
			"min":[
				-0.3248087763786316,
				-0.9632514715194702,
				-0.0940561294555664
			],
			"type":"VEC3"
		},
		{
			"bufferView":29,
			"componentType":5126,
			"count":16150,
			"type":"VEC3"
		},
		{
			"bufferView":30,
			"componentType":5126,
			"count":16150,
			"type":"VEC2"
		},
		{
			"bufferView":31,
			"componentType":5123,
			"count":89151,
			"type":"SCALAR"
		}
	],
	"bufferViews":[
		{
			"buffer":0,
			"byteLength":1374120,
			"byteOffset":0,
			"target":34962
		},
		{
			"buffer":0,
			"byteLength":1374120,
			"byteOffset":1374120,
			"target":34962
		},
		{
			"buffer":0,
			"byteLength":916080,
			"byteOffset":2748240,
			"target":34962
		},
		{
			"buffer":0,
			"byteLength":2474520,
			"byteOffset":3664320,
			"target":34963
		},
		{
			"buffer":0,
			"byteLength":1374120,
			"byteOffset":6138840,
			"target":34962
		},
		{
			"buffer":0,
			"byteLength":1374120,
			"byteOffset":7512960,
			"target":34962
		},
		{
			"buffer":0,
			"byteLength":916080,
			"byteOffset":8887080,
			"target":34962
		},
		{
			"buffer":0,
			"byteLength":2474520,
			"byteOffset":9803160,
			"target":34963
		},
		{
			"buffer":0,
			"byteLength":1374120,
			"byteOffset":12277680,
			"target":34962
		},
		{
			"buffer":0,
			"byteLength":1374120,
			"byteOffset":13651800,
			"target":34962
		},
		{
			"buffer":0,
			"byteLength":916080,
			"byteOffset":15025920,
			"target":34962
		},
		{
			"buffer":0,
			"byteLength":2474520,
			"byteOffset":15942000,
			"target":34963
		},
		{
			"buffer":0,
			"byteLength":1374120,
			"byteOffset":18416520,
			"target":34962
		},
		{
			"buffer":0,
			"byteLength":1374120,
			"byteOffset":19790640,
			"target":34962
		},
		{
			"buffer":0,
			"byteLength":916080,
			"byteOffset":21164760,
			"target":34962
		},
		{
			"buffer":0,
			"byteLength":2474520,
			"byteOffset":22080840,
			"target":34963
		},
		{
			"buffer":0,
			"byteLength":1051524,
			"byteOffset":24555360,
			"target":34962
		},
		{
			"buffer":0,
			"byteLength":1051524,
			"byteOffset":25606884,
			"target":34962
		},
		{
			"buffer":0,
			"byteLength":701016,
			"byteOffset":26658408,
			"target":34962
		},
		{
			"buffer":0,
			"byteLength":1966728,
			"byteOffset":27359424,
			"target":34963
		},
		{
			"buffer":0,
			"byteLength":108828,
			"byteOffset":29326152,
			"target":34962
		},
		{
			"buffer":0,
			"byteLength":108828,
			"byteOffset":29434980,
			"target":34962
		},
		{
			"buffer":0,
			"byteLength":72552,
			"byteOffset":29543808,
			"target":34962
		},
		{
			"buffer":0,
			"byteLength":106350,
			"byteOffset":29616360,
			"target":34963
		},
		{
			"buffer":0,
			"byteLength":706272,
			"byteOffset":29722712,
			"target":34962
		},
		{
			"buffer":0,
			"byteLength":706272,
			"byteOffset":30428984,
			"target":34962
		},
		{
			"buffer":0,
			"byteLength":470848,
			"byteOffset":31135256,
			"target":34962
		},
		{
			"buffer":0,
			"byteLength":660852,
			"byteOffset":31606104,
			"target":34963
		},
		{
			"buffer":0,
			"byteLength":193800,
			"byteOffset":32266956,
			"target":34962
		},
		{
			"buffer":0,
			"byteLength":193800,
			"byteOffset":32460756,
			"target":34962
		},
		{
			"buffer":0,
			"byteLength":129200,
			"byteOffset":32654556,
			"target":34962
		},
		{
			"buffer":0,
			"byteLength":178302,
			"byteOffset":32783756,
			"target":34963
		}
	],
	"samplers":[
		{
			"magFilter":9729,
			"minFilter":9987
		}
	],
	"buffers":[
		{
			"byteLength":32962060,
			"uri":"McLarenTest.bin"
		}
	]
}
